<svg xmlns="http://www.w3.org/2000/svg" width="511pt" height="511pt" viewBox="0 0 511.999 511"><path d="m508.992188 206.804688c-1.386719-10.3125-8.15625-23.265626-20.136719-38.53125-1.308594-15.351563-8.039063-29.511719-19.28125-40.339844-12.582031-12.117188-29.132813-18.429688-46.632813-17.769532-32.894531 1.238282-59.777344 27.96875-61.199218 60.855469-.105469 2.546875-.066407 5.109375.121093 7.621094 1.09375 14.527344-5.066406 28.257813-16.472656 36.734375-2.207031 1.640625-4.371094 3.167969-6.488281 4.589844-11.476563-57.5-9.195313-123.027344 6.839844-195.058594l5.433593-24.40625-24.089843 6.695312c-3.167969.878907-78.109376 22.246094-121.726563 81.210938-9.753906 13.183594-17.296875 26.664062-23.0625 41.300781-23.273437-22.8125-46.332031-50.488281-66.851563-83.863281l-13.257812-21.570312-12.546875 21.996093c-2.445313 4.285157-59.503906 106.085938-24.757813 199.636719 16.839844 45.339844 52.070313 80.421875 104.910157 104.550781l-8.300781 5.90625-158.277344-3.5-1.929688 13.101563c-.179687 1.226562-4.328125 30.359375 3.3125 62.359375 10.660156 44.664062 38.578125 73.15625 80.738282 82.402343l7.59375 1.667969 89.554687-81.863281c19.234375 10.074219 38.457031 14.851562 65.09375 16.53125 47.519531 2.996094 93.527344-12.886719 129.550781-44.714844 36.222656-32.003906 57.769532-76.015625 60.675782-123.925781l.871093-14.367187c.605469-9.992188 6.292969-21.027344 15.207031-29.511719 8.796876-8.375 19.585938-13.039063 28.863282-12.472657 2.535156.152344 5.054687.5625 7.480468 1.214844l21.773438 5.871094zm-279.515626-100.558594c23.289063-31.480469 58.328126-50.894532 81.582032-61.101563-11.15625 61.6875-12.308594 118.835938-3.457032 170.53125-24.5625-10.949219-62.054687-30.945312-101.226562-64.042969 5.15625-16.582031 12.605469-31.191406 23.101562-45.386718zm203.722657 106.566406c-14.480469 13.785156-23.398438 31.800781-24.46875 49.429688l-.871094 14.363281c-2.417969 39.902343-20.386719 76.574219-50.59375 103.265625-30.003906 26.511718-68.304687 39.742187-107.800781 37.253906-26.167969-1.648438-42.753906-6.476562-61.195313-17.804688l-9.628906-5.917968-94.1875 86.097656c-26.15625-8.117188-43.128906-27.386719-50.496094-57.378906-3.589843-14.625-4.136719-28.835938-3.902343-38.660156l140.726562 3.113281 62.195312-44.261719-27.164062-9.644531c-58.566406-20.789063-96.5-53.445313-112.757812-97.0625-5.144532-13.804688-7.816407-27.980469-8.796876-41.867188 7.105469 7.753907 15.609376 16.449219 25.496094 25.566407 30.578125 28.203124 80.699219 65.910156 145.800782 85.386718l8.597656-28.742187c-59.289063-17.734375-105.285156-52.265625-133.429688-78.113281-22.96875-21.09375-38.15625-40.023438-44.472656-48.402344 1.667969-11.113282 4.015625-21.421875 6.515625-30.433594 3.722656-13.421875 8.09375-25.289062 12.011719-34.722656 45.835937 65.726562 99.894531 107.402344 138.9375 131.472656 47.234375 29.121094 89.925781 41.449219 89.925781 41.449219s21.09375-11.394531 29.644531-17.742188c19.707032-14.648437 30.363282-38.21875 28.496094-63.0625-.101562-1.34375-.125-2.714843-.0625-4.078125.75-17.386718 14.960938-31.519531 32.355469-32.175781 9.269531-.351563 18.035156 2.988281 24.691406 9.402344 6.664063 6.414062 10.332031 15.035156 10.332031 24.28125 0 5.351562 2.675782 8.640625 3.964844 10.222656 2.75 3.371094 5.03125 6.390625 6.925781 9.074219-13.03125 2.527344-25.910156 9.339844-36.789062 19.691406zm0 0"/></svg>