<svg xmlns="http://www.w3.org/2000/svg" width="100" height="100"><g stroke="#373449" transform="translate(-677.434 -561.31)"><circle cx="727.413" cy="587.778" r="8.355" fill="none" stroke-linecap="round" stroke-linejoin="round"/><path fill="none" stroke-linecap="round" stroke-linejoin="round" d="m725.153 596.21-12.768 12.768m17.329-13.036 12.768 12.768m-15.275 12.427-4.732 22.054m5-22.054 4.732 22.054"/><path fill="#2bbda8" d="M725.774 595.973c-3.661 10.817-4.63 23.43-10.985 32.451 7.997 1.5 15.994 2.768 23.991.632-8.548-18.415-7.538-23.63-9.596-33.083-1.176.343-2.23.169-3.41 0z"/><path fill="none" stroke-linecap="round" stroke-miterlimit="4.067" stroke-width="2" d="m726.45 588.298.022.01m5.648-.01.022.01"/><path fill="none" stroke-linecap="round" d="M715.086 593.728c3.496 2.685 3.764-2.321 3.978-6.26m20.681 6.26c-3.495 2.685-3.763-2.321-3.977-6.26m-7.52 5.773c.459.338 1.01.686 1.925 0"/></g></svg>